<svg version="1" xmlns="http://www.w3.org/2000/svg" width="354.667" height="354.667" viewBox="0 0 266.000000 266.000000"><path d="M60 23c-19.3 5.1-35.1 17.7-44.2 35-11.5 21.9-9.8 49.9 4.9 81 14.5 30.5 42.7 63 73.3 84.6 8.8 6.1 21.7 14.4 22.6 14.4.3 0 3.8 1.6 7.8 3.5s8 3.5 8.8 3.5c3.1 0 26.5-12.7 36.8-20 5.8-4 10.7-7.6 11-7.9.3-.3 3.9-3.5 8-7 11.8-10.1 28.6-27.7 33.9-35.5.8-1.2 1.8-2.3 2.1-2.6.4-.3 3.1-4.1 6-8.5s6-9.1 6.9-10.5c1.6-2.3 8.8-16.9 11.7-23.5 2-4.7 4.3-12.9 6.4-22.8 5.6-26.3-2.1-51.4-20.9-68.2-28.3-25.4-72.6-22.8-97.6 5.8l-4.2 4.9-7.4-7.4C112 27.9 98.3 21.9 79 21.3c-9.1-.2-13.1.1-19 1.7z"/></svg>