<?xml version="1.0" standalone="no"?>
<!DOCTYPE svg PUBLIC "-//W3C//DTD SVG 20010904//EN"
 "http://www.w3.org/TR/2001/REC-SVG-20010904/DTD/svg10.dtd">
<svg version="1.0" xmlns="http://www.w3.org/2000/svg"
 width="377.000000pt" height="377.000000pt" viewBox="0 0 377.000000 377.000000"
 preserveAspectRatio="xMidYMid meet">
<metadata>
Created by potrace 1.11, written by Peter Selinger 2001-2013
</metadata>
<g transform="translate(0.000000,377.000000) scale(0.100000,-0.100000)"
fill="#000000" stroke="none">
<path d="M1690 3312 c-69 -18 -157 -57 -320 -140 -375 -191 -525 -291 -722
-480 -85 -82 -97 -106 -119 -242 -9 -55 -21 -89 -47 -128 -91 -141 -306 -648
-351 -827 -42 -173 -63 -274 -56 -284 11 -19 22 -12 18 11 -2 13 6 57 17 98
12 41 26 99 31 129 12 66 64 201 196 506 101 233 152 340 157 333 2 -1 -18
-88 -45 -193 -58 -223 -79 -343 -79 -442 0 -64 -5 -84 -45 -175 -40 -91 -56
-113 -128 -187 -45 -46 -68 -75 -52 -64 30 21 73 64 172 175 l52 57 15 -47 c8
-26 17 -88 20 -137 7 -94 34 -228 61 -292 20 -48 76 -131 93 -138 9 -3 8 2 -2
18 -16 24 -46 121 -46 146 0 9 12 -2 26 -24 15 -22 40 -54 57 -72 l30 -32 -7
-108 c-8 -125 -29 -234 -56 -299 -41 -94 -150 -185 -365 -302 -145 -80 -195
-111 -195 -124 0 -6 8 -4 18 5 9 8 53 36 97 60 156 87 181 101 249 144 138 89
184 146 241 303 22 60 28 98 33 193 l5 118 21 -20 c26 -24 146 -84 153 -77 3
3 -20 16 -51 30 -110 49 -222 182 -272 324 l-24 67 -1 -45 c-1 -44 -1 -44 -11
-15 -15 43 -15 414 0 509 7 44 10 81 8 83 -7 8 -26 -124 -33 -230 -3 -59 -9
-107 -13 -107 -38 0 -38 340 -1 509 97 437 151 630 197 700 81 123 162 188
369 296 138 72 267 153 325 205 46 41 91 63 304 150 196 80 238 89 318 70 54
-13 272 -103 387 -159 64 -31 90 -40 61 -21 -26 17 47 0 157 -36 182 -59 226
-87 358 -228 121 -128 269 -308 353 -429 26 -37 69 -96 95 -130 27 -34 66 -92
87 -128 42 -71 256 -576 266 -628 6 -28 4 -31 -20 -31 -42 0 -152 58 -376 200
-63 40 -121 75 -130 78 -39 14 -172 112 -237 175 -94 91 -166 196 -214 312
-47 115 -77 162 -137 212 -83 68 -87 69 -34 7 82 -94 148 -196 171 -267 40
-119 134 -250 234 -327 114 -86 176 -133 262 -195 50 -35 121 -96 159 -134
l69 -69 -12 -122 c-6 -68 -15 -129 -20 -137 -4 -8 -30 -38 -57 -66 -157 -164
-200 -231 -219 -338 -8 -46 -15 -85 -15 -85 0 -1 -41 -35 -90 -75 -50 -40 -89
-74 -87 -76 2 -1 26 6 53 16 77 30 165 39 226 24 146 -37 410 -203 498 -315
26 -33 46 -51 48 -43 2 8 -2 23 -8 35 -18 33 -189 170 -281 224 -96 57 -253
121 -321 131 -27 4 -48 10 -48 14 0 4 16 22 35 41 69 67 235 297 255 352 22
65 90 377 90 416 0 41 7 44 53 21 22 -12 63 -28 90 -36 47 -14 51 -14 70 6
l21 20 -33 98 c-102 303 -219 557 -319 693 -27 36 -90 126 -142 200 -51 74
-125 169 -165 210 -40 41 -116 121 -171 178 -134 140 -220 186 -454 242 -103
24 -170 49 -355 131 -114 51 -125 54 -210 56 -70 1 -111 -4 -185 -25z"/>
<path d="M1230 2680 c-17 -5 5 -8 65 -9 52 -1 122 -9 168 -21 221 -56 505
-220 691 -399 37 -36 63 -57 58 -45 -21 40 -184 184 -280 248 -180 118 -360
196 -502 216 -108 15 -174 18 -200 10z"/>
<path d="M2190 2306 c0 -9 5 -16 10 -16 6 0 10 4 10 9 0 6 -4 13 -10 16 -5 3
-10 -1 -10 -9z"/>
<path d="M612 2198 c-68 -99 -104 -185 -117 -281 -24 -169 -25 -183 -5 -97 23
100 79 257 126 353 18 37 31 67 29 67 -2 0 -17 -19 -33 -42z"/>
<path d="M2250 2126 c5 -14 28 -69 51 -123 l42 -98 -7 -170 c-3 -93 -9 -183
-12 -199 -5 -20 -3 -27 4 -22 14 8 31 93 41 198 7 82 7 83 18 43 6 -22 17 -84
26 -138 15 -96 14 -101 -8 -190 -28 -114 -53 -178 -112 -287 -25 -47 -55 -103
-66 -125 -11 -22 -70 -116 -132 -210 -183 -279 -260 -417 -304 -552 -28 -86
-30 -89 -78 -112 -76 -38 -126 -38 -207 -2 -38 17 -70 30 -72 28 -6 -6 90 -73
124 -87 17 -7 32 -19 32 -26 0 -8 4 -14 9 -14 27 0 278 109 253 110 -7 0 -10
5 -6 12 9 15 -14 2 -44 -26 l-24 -21 7 40 c12 62 59 186 90 235 16 25 55 92
88 149 32 57 100 167 151 245 124 188 203 333 273 496 25 58 47 107 50 110 2
3 2 -78 0 -180 -6 -228 -9 -238 -145 -536 -68 -148 -93 -222 -91 -273 1 -29 3
-24 10 20 4 31 32 108 65 180 173 378 179 403 178 694 -2 337 -35 500 -154
748 -48 100 -72 139 -50 83z"/>
<path d="M2012 1880 c11 -28 23 -49 25 -47 4 5 -34 97 -41 97 -3 0 5 -23 16
-50z"/>
<path d="M661 1904 c0 -11 3 -14 6 -6 3 7 2 16 -1 19 -3 4 -6 -2 -5 -13z"/>
<path d="M1420 1910 c0 -8 5 -35 10 -60 20 -90 33 -130 41 -124 4 2 15 -8 23
-24 8 -16 22 -34 30 -41 24 -20 20 3 -8 52 -13 23 -36 76 -52 117 -28 77 -44
105 -44 80z"/>
<path d="M912 1830 c0 -14 2 -19 5 -12 2 6 2 18 0 25 -3 6 -5 1 -5 -13z"/>
<path d="M921 1777 c-3 -70 63 -307 116 -412 46 -90 110 -175 134 -175 6 0 -3
12 -20 26 -30 25 -111 177 -111 208 0 8 -16 50 -36 93 -33 73 -68 190 -77 258
l-4 30 -2 -28z"/>
<path d="M1261 1725 c-1 -32 43 -203 55 -213 4 -4 4 6 0 23 -4 16 -6 28 -3 25
20 -22 77 -102 77 -110 0 -9 102 -109 124 -122 7 -4 -15 21 -48 55 -64 66
-113 146 -160 262 -49 121 -45 114 -45 80z"/>
<path d="M1801 1697 c-3 -33 117 -280 188 -386 22 -34 38 -61 35 -61 -23 0
-256 220 -327 308 -15 19 -27 30 -27 27 0 -10 41 -58 119 -140 36 -38 73 -79
82 -90 16 -20 16 -20 -34 -16 -53 3 -157 -15 -157 -28 0 -4 6 -13 13 -20 10
-11 2 -13 -47 -8 -32 3 -56 3 -52 0 3 -3 -6 -20 -19 -38 -35 -45 -31 -49 18
-15 55 37 72 40 73 15 0 -32 15 -116 31 -179 18 -74 45 -127 80 -161 25 -24
34 -26 87 -22 51 3 63 8 87 35 34 38 36 52 10 52 -11 0 -22 4 -25 9 -4 5 -19
3 -36 -6 -48 -24 -88 -1 -128 72 -25 46 -22 159 6 213 12 23 27 42 32 42 15 0
12 -16 -5 -30 -8 -7 -22 -36 -32 -66 -14 -46 -15 -61 -4 -110 17 -74 46 -104
100 -104 37 0 44 4 68 41 35 53 44 159 19 210 -16 33 -13 56 5 29 35 -55 35
-159 0 -229 l-21 -40 30 11 c37 12 45 37 45 135 0 58 2 69 13 60 10 -8 13 -37
10 -113 -3 -113 5 -114 32 -5 20 81 36 93 88 63 57 -32 76 -27 21 6 -97 57
-113 67 -126 82 -43 44 -144 229 -236 430 -9 19 -16 31 -16 27z m113 -509 c17
-23 21 -85 8 -104 -12 -19 -50 -34 -67 -28 -57 22 -41 154 20 154 13 0 31 -10
39 -22z"/>
<path d="M1846 1168 c-29 -41 -15 -88 26 -88 33 0 52 72 26 98 -18 18 -35 15
-52 -10z"/>
<path d="M707 1473 c2 -76 8 -176 13 -223 5 -51 4 -92 -1 -102 -7 -13 -6 -18
3 -18 8 0 22 -37 36 -98 12 -53 33 -119 46 -147 29 -59 31 -57 11 9 -29 96
-12 87 27 -14 43 -109 71 -254 65 -329 -3 -36 0 -90 5 -119 11 -52 10 -54 -20
-84 -17 -18 -46 -34 -69 -38 l-38 -8 37 -1 c29 -1 44 6 68 29 27 27 35 29 78
24 26 -3 55 -7 65 -9 28 -5 20 4 -20 22 -40 19 -53 45 -68 130 l-6 41 95 -91
c53 -51 96 -95 96 -99 0 -4 -16 -14 -35 -22 -19 -8 -35 -20 -35 -26 0 -9 50
12 88 38 11 7 -10 33 -83 103 -107 103 -128 136 -151 236 -26 112 -64 222
-115 332 -27 57 -49 112 -49 122 0 31 26 22 65 -23 l36 -42 -16 43 c-23 65
-20 99 9 113 39 17 52 5 59 -54 8 -77 62 -219 101 -264 29 -34 35 -37 50 -25
24 20 19 45 -12 57 -45 17 -76 91 -80 192 -3 49 0 88 6 94 7 7 9 -9 5 -50 -9
-92 42 -240 72 -210 3 3 7 27 11 54 4 38 3 45 -6 32 -20 -32 -40 -22 -38 20 1
37 1 37 5 4 2 -18 9 -30 14 -27 12 8 11 52 -2 78 -9 18 -9 20 1 10 10 -9 16
-8 27 3 13 12 12 19 -4 51 -25 53 -72 77 -141 74 -61 -2 -92 -15 -137 -57
l-30 -28 -7 45 c-12 79 -9 207 5 212 10 4 10 6 0 6 -15 1 -18 51 -4 51 5 0 14
-13 19 -30 6 -16 39 -58 74 -92 35 -35 47 -46 27 -23 -57 63 -107 141 -130
206 -12 32 -23 59 -24 59 -1 0 0 -62 2 -137z"/>
<path d="M1571 1559 c-13 -5 -21 -12 -18 -15 3 -3 14 -1 25 5 11 6 22 7 26 3
4 -3 -8 -12 -26 -18 -27 -9 -35 -8 -46 5 -11 14 -12 13 -2 -6 8 -18 14 -21 38
-13 15 5 35 10 46 12 18 3 18 3 0 19 -14 13 -25 14 -43 8z"/>
<path d="M2072 1560 c0 -8 4 -26 8 -40 6 -20 8 -21 8 -5 0 11 -3 29 -8 40 -5
12 -8 14 -8 5z"/>
<path d="M2097 1455 c3 -22 7 -42 9 -44 8 -9 2 45 -6 64 -7 14 -8 8 -3 -20z"/>
<path d="M1691 1457 c2 -1 15 -11 29 -22 l25 -20 -19 23 c-11 12 -24 22 -29
22 -6 0 -8 -1 -6 -3z"/>
<path d="M2122 1350 c0 -14 2 -19 5 -12 2 6 2 18 0 25 -3 6 -5 1 -5 -13z"/>
<path d="M1340 1324 c0 -10 58 -74 67 -74 4 0 -9 17 -28 37 -18 21 -35 40 -36
42 -2 2 -3 0 -3 -5z"/>
<path d="M2245 1213 c-8 -57 -19 -60 -50 -13 -11 16 -21 27 -23 25 -6 -6 58
-85 69 -85 5 0 8 3 7 8 -1 4 2 23 6 44 4 20 6 44 3 55 -2 10 -7 -5 -12 -34z"/>
<path d="M2221 1107 c-6 -16 -13 -47 -16 -70 -4 -39 -3 -37 15 18 20 62 21
102 1 52z"/>
<path d="M1072 995 c0 -16 2 -22 5 -12 2 9 2 23 0 30 -3 6 -5 -1 -5 -18z"/>
<path d="M2242 852 c-52 -117 -90 -212 -82 -207 10 6 112 246 107 251 -2 2
-13 -17 -25 -44z"/>
<path d="M698 725 c-4 -11 -10 -37 -14 -57 -3 -21 -9 -36 -13 -34 -3 2 -6 -6
-7 -17 -4 -78 -33 -155 -107 -280 -66 -112 -180 -198 -327 -247 -63 -21 -175
-78 -167 -86 2 -2 32 12 68 30 35 19 96 43 134 55 70 21 155 69 208 119 16 15
52 60 80 100 28 40 53 69 55 64 1 -5 -11 -47 -28 -93 -16 -46 -26 -79 -21 -74
29 29 156 474 149 520 -4 20 -4 20 -10 0z"/>
<path d="M2405 719 c-4 -6 -5 -12 -2 -15 2 -3 7 2 10 11 7 17 1 20 -8 4z"/>
<path d="M796 673 c-28 -85 -46 -192 -46 -271 0 -84 8 -125 21 -117 4 3 4 17
-1 31 -20 52 -10 147 36 332 19 77 12 93 -10 25z"/>
<path d="M856 678 c-3 -13 -2 -26 3 -31 4 -4 8 6 9 23 1 36 -3 39 -12 8z"/>
<path d="M732 620 c0 -14 2 -19 5 -12 2 6 2 18 0 25 -3 6 -5 1 -5 -13z"/>
<path d="M2444 568 l-19 -23 23 19 c21 18 27 26 19 26 -2 0 -12 -10 -23 -22z"/>
<path d="M2971 583 l-53 -4 45 -29 c54 -34 112 -105 175 -213 52 -90 73 -111
40 -40 -35 74 -76 132 -145 204 l-64 66 53 6 c72 9 195 8 243 -2 22 -5 54 -11
70 -15 29 -6 29 -6 -5 11 -27 13 -67 17 -170 18 -74 1 -159 0 -189 -2z"/>
<path d="M2113 572 c-6 -4 -25 -34 -42 -66 -26 -48 -31 -69 -30 -120 l1 -61
10 45 c13 61 47 160 64 188 16 24 15 26 -3 14z"/>
<path d="M2315 539 c-9 -17 -14 -33 -11 -36 3 -3 10 7 16 22 6 15 13 32 16 36
3 5 3 9 0 9 -3 0 -13 -14 -21 -31z"/>
<path d="M2385 498 l-40 -43 43 40 c39 36 47 45 39 45 -2 0 -21 -19 -42 -42z"/>
<path d="M711 514 c0 -11 3 -14 6 -6 3 7 2 16 -1 19 -3 4 -6 -2 -5 -13z"/>
<path d="M2663 508 c-35 -12 -61 -24 -58 -26 2 -3 -6 -19 -19 -36 -28 -36 -56
-114 -56 -154 0 -52 -16 -57 -41 -13 -12 22 -24 39 -26 37 -2 -1 8 -23 22 -48
30 -53 70 -167 80 -226 l7 -42 265 0 c247 0 264 1 259 18 -3 9 -22 71 -42 137
-73 244 -129 322 -250 356 -82 22 -66 22 -141 -3z"/>
<path d="M2330 366 c0 -2 7 -7 16 -10 8 -3 12 -2 9 4 -6 10 -25 14 -25 6z"/>
<path d="M2425 350 c10 -11 20 -20 23 -20 3 0 -3 9 -13 20 -10 11 -20 20 -23
20 -3 0 3 -9 13 -20z"/>
<path d="M2250 350 c-8 -5 -10 -10 -5 -10 6 0 17 5 25 10 8 5 11 10 5 10 -5 0
-17 -5 -25 -10z"/>
<path d="M2200 330 c-8 -6 -40 -17 -70 -26 -58 -17 -233 -95 -227 -101 2 -2
44 15 94 37 49 22 120 47 157 55 106 25 140 7 189 -99 9 -21 20 -36 23 -33 3
3 -8 32 -25 64 -33 61 -71 93 -113 93 -18 0 -20 2 -8 10 8 5 11 10 5 10 -5 0
-17 -5 -25 -10z"/>
<path d="M2380 336 c0 -4 13 -24 30 -44 31 -40 100 -182 121 -250 7 -23 16
-42 21 -42 29 0 -110 291 -158 330 -7 7 -14 9 -14 6z"/>
<path d="M1310 236 c0 -3 9 -10 20 -16 11 -6 20 -8 20 -6 0 3 -9 10 -20 16
-11 6 -20 8 -20 6z"/>
<path d="M2080 209 c25 -5 55 -11 68 -14 35 -8 101 -73 144 -140 44 -70 51
-63 9 10 -57 100 -143 156 -231 154 -34 -1 -33 -2 10 -10z"/>
<path d="M2008 203 c7 -3 16 -2 19 1 4 3 -2 6 -13 5 -11 0 -14 -3 -6 -6z"/>
<path d="M589 183 c-13 -16 -12 -17 4 -4 16 13 21 21 13 21 -2 0 -10 -8 -17
-17z"/>
<path d="M495 132 c-22 -20 -65 -59 -95 -86 -66 -58 -38 -41 45 29 33 27 74
60 90 72 18 13 24 22 15 22 -8 0 -33 -16 -55 -37z"/>
<path d="M1042 135 c-1 -11 -7 -38 -13 -59 l-11 -40 -19 25 c-19 24 -19 24 -1
-18 9 -23 19 -37 20 -30 2 7 10 27 19 45 8 18 12 47 10 65 -2 18 -5 23 -5 12z"/>
<path d="M1402 25 c6 -14 15 -25 20 -25 5 0 1 11 -8 25 -21 32 -27 32 -12 0z"/>
<path d="M3120 26 c0 -8 4 -17 9 -20 5 -4 7 3 4 14 -6 23 -13 26 -13 6z"/>
<path d="M1478 3 c7 -3 16 -2 19 1 4 3 -2 6 -13 5 -11 0 -14 -3 -6 -6z"/>
</g>
</svg>
